HIERARCHY
ROOT Pelvis
{
	OFFSET 0.000000 0.000000 0.000000
	CHANNELS 6 Xposition Yposition Zposition Xrotation Yrotation Zrotation
	JOINT LeftUpLeg_virtual
	{
		OFFSET 0.000000 0.000000 0.000000
		CHANNELS 3 Xrotation Yrotation Zrotation
		JOINT LeftUpLeg
		{
			OFFSET 8.479700 -4.795502 -0.379100
			CHANNELS 3 Xrotation Yrotation Zrotation
			JOINT LeftLeg
			{
				OFFSET 0.024144 -32.555107 0.112900
				CHANNELS 3 Xrotation Yrotation Zrotation
				JOINT LeftFoot
				{
					OFFSET -0.024144 -32.638630 -3.012600
					CHANNELS 3 Xrotation Yrotation Zrotation
					JOINT LeftToeBase
					{
						OFFSET 0.970200 -13.225400 11.864200
						CHANNELS 3 Xrotation Yrotation Zrotation
						End Site
						{
							OFFSET 0 0 0
						}
					}
				}
			}
		}
	}
	JOINT RightUpLeg_virtual
	{
		OFFSET 0.000000 0.000000 0.000000
		CHANNELS 3 Xrotation Yrotation Zrotation
		JOINT RightUpLeg
		{
			OFFSET -8.479700 -4.795502 -0.379100
			CHANNELS 3 Xrotation Yrotation Zrotation
			JOINT RightLeg
			{
				OFFSET -0.023144 -32.555092 0.112900
				CHANNELS 3 Xrotation Yrotation Zrotation
				JOINT RightFoot
				{
					OFFSET 0.023144 -32.638641 -3.012700
					CHANNELS 3 Xrotation Yrotation Zrotation
					JOINT RightToeBase
					{
						OFFSET -0.970200 -13.225400 11.864200
						CHANNELS 3 Xrotation Yrotation Zrotation
						End Site
						{
							OFFSET 0 0 0
						}
					}
				}
			}
		}
	}
	JOINT Hips_virtual
	{
		OFFSET 0.000000 0.000000 0.000000
		CHANNELS 3 Xrotation Yrotation Zrotation
		JOINT Hips
		{
			OFFSET -0.000000 -0.000000 -0.000000
			CHANNELS 3 Xrotation Yrotation Zrotation
			JOINT Spine
			{
				OFFSET 0.000000 7.722000 1.166200
				CHANNELS 3 Xrotation Yrotation Zrotation
				JOINT Spine1
				{
					OFFSET 0.000000 12.024101 0.248800
					CHANNELS 3 Xrotation Yrotation Zrotation
					JOINT Spine2
					{
						OFFSET 0.000000 11.502998 -0.491200
						CHANNELS 3 Xrotation Yrotation Zrotation
						JOINT Neck_virtual
						{
							OFFSET 0.000000 0.000000 0.000000
							CHANNELS 3 Xrotation Yrotation Zrotation
							JOINT Neck
							{
								OFFSET 0.000000 18.430702 -3.123100
								CHANNELS 3 Xrotation Yrotation Zrotation
								JOINT Head
								{
									OFFSET 0.000000 9.051102 1.034000
									CHANNELS 3 Xrotation Yrotation Zrotation
									End Site
									{
										OFFSET 0 0 0
									}
								}
							}
						}
						JOINT LeftShoulder_virtual
						{
							OFFSET 0.000000 0.000000 0.000000
							CHANNELS 3 Xrotation Yrotation Zrotation
							JOINT LeftShoulder
							{
								OFFSET 6.197800 13.665199 -4.064700
								CHANNELS 3 Xrotation Yrotation Zrotation
								JOINT LeftArm
								{
									OFFSET 7.778100 -0.187103 -1.709300
									CHANNELS 3 Xrotation Yrotation Zrotation
									JOINT LeftForeArm
									{
										OFFSET 22.049376 0.000000 0.000000
										CHANNELS 3 Xrotation Yrotation Zrotation
										JOINT LeftHand
										{
											OFFSET 23.009392 0.000000 0.000000
											CHANNELS 3 Xrotation Yrotation Zrotation
											End Site
											{
												OFFSET 0 0 0
											}
										}
									}
								}
							}
						}
						JOINT RightShoulder_virtual
						{
							OFFSET 0.000000 0.000000 0.000000
							CHANNELS 3 Xrotation Yrotation Zrotation
							JOINT RightShoulder
							{
								OFFSET -6.197800 13.665199 -4.064700
								CHANNELS 3 Xrotation Yrotation Zrotation
								JOINT RightArm
								{
									OFFSET -7.778100 -0.187103 -1.709300
									CHANNELS 3 Xrotation Yrotation Zrotation
									JOINT RightForeArm
									{
										OFFSET -22.049376 0.000000 0.000000
										CHANNELS 3 Xrotation Yrotation Zrotation
										JOINT RightHand
										{
											OFFSET -23.009392 0.000000 0.000000
											CHANNELS 3 Xrotation Yrotation Zrotation
											End Site
											{
												OFFSET 0 0 0
											}
										}
									}
								}
							}
						}
					}
				}
			}
		}
	}
}
MOTION
Frames: 8
Frame Time: 0.03333333
-26.523857 41.241714 225.825623 0.000000 0.000000 0.000000 -169.998245 13.583410 -177.228465 -98.501676 0.982465 36.741384 108.509200 -0.702323 -3.624656 1.733934 -9.874142 12.010836 0.000000 0.000000 0.000000 -169.998245 13.583410 -177.228465 -100.166807 8.695944 -15.531261 112.180468 -7.727825 2.276084 -1.712297 2.894285 -13.068896 0.000000 0.000000 0.000000 -169.998245 13.583410 -177.228465 -0.000001 -0.000001 -0.000000 16.792478 -3.967461 -8.968597 3.969194 -0.741156 -2.119502 0.000000 0.000000 0.000000 3.979512 -0.739450 -2.101519 0.912699 0.186795 0.154902 0.000000 0.000000 0.000000 3.979512 -0.739450 -2.101519 1.384111 -5.715088 -11.757629 -18.360582 -40.146223 -47.046145 -0.000016 -56.855451 -0.000018 0.000000 0.000000 0.000000 3.979512 -0.739450 -2.101519 -4.126461 21.353060 -2.025799 -21.913714 29.410764 24.489290 -180.000005 72.353574 180.000005 0.000000 0.000000 0.000000 
-26.517479 41.241417 225.825333 0.000000 0.000000 0.000000 -170.041726 13.585362 -177.230718 -98.536831 0.947749 36.714357 108.507821 -0.702502 -3.622949 1.734770 -9.851266 11.985785 0.000000 0.000000 0.000000 -170.041726 13.585362 -177.230718 -100.205193 8.676534 -15.533218 112.181718 -7.727476 2.283013 -1.705420 2.893936 -13.075439 0.000000 0.000000 0.000000 -170.041726 13.585362 -177.230718 -0.000001 0.000001 0.000000 16.780146 -3.953151 -8.953159 3.960998 -0.736596 -2.125365 0.000000 0.000000 0.000000 3.971168 -0.734085 -2.108097 0.911081 0.174949 0.179146 0.000000 0.000000 0.000000 3.971168 -0.734085 -2.108097 1.385422 -5.719496 -11.741860 -18.384001 -40.127337 -47.070590 -0.000019 -56.804836 -0.000015 0.000000 0.000000 0.000000 3.971168 -0.734085 -2.108097 -4.269431 21.023298 -2.430173 -22.824074 29.584295 24.643070 -179.999991 71.850469 180.000005 0.000000 0.000000 0.000000 
-26.508724 41.243980 225.824493 0.000000 0.000000 0.000000 -170.049198 13.595927 -177.235691 -98.533040 0.923311 36.694228 108.506236 -0.714224 -3.620944 1.737453 -9.829350 11.994697 0.000000 0.000000 0.000000 -170.049198 13.595927 -177.235691 -100.210042 8.651027 -15.534784 112.181725 -7.718532 2.289862 -1.725712 2.893747 -13.092884 0.000000 0.000000 0.000000 -170.049198 13.595927 -177.235691 0.000000 -0.000001 0.000000 16.771103 -3.940480 -8.939283 3.953007 -0.732008 -2.129828 0.000000 0.000000 0.000000 3.963046 -0.728870 -2.113284 0.909228 0.164212 0.204960 0.000000 0.000000 0.000000 3.963046 -0.728870 -2.113284 1.385778 -5.726418 -11.728838 -18.401727 -40.104272 -47.092764 0.000024 -56.770777 0.000030 0.000000 0.000000 0.000000 3.963046 -0.728870 -2.113284 -4.382722 20.715691 -2.732461 -23.680768 29.747875 24.695000 -179.999991 71.448130 -179.999991 0.000000 0.000000 0.000000 
-26.499063 41.246071 225.819962 0.000000 0.000000 0.000000 -170.059921 13.608047 -177.238546 -98.524058 0.886912 36.682637 108.504911 -0.724400 -3.618867 1.739633 -9.806716 11.946345 0.000000 0.000000 0.000000 -170.059921 13.608047 -177.238546 -100.215869 8.628473 -15.537478 112.177661 -7.708309 2.297314 -1.731901 2.893545 -13.110391 0.000000 0.000000 0.000000 -170.059921 13.608047 -177.238546 0.000000 0.000000 0.000000 16.762500 -3.932852 -8.924563 3.944887 -0.728167 -2.131930 0.000000 0.000000 0.000000 3.954820 -0.724027 -2.115637 0.906905 0.156214 0.232184 0.000000 0.000000 0.000000 3.954820 -0.724027 -2.115637 1.385075 -5.737307 -11.717955 -18.413625 -40.072399 -47.113040 -0.000003 -56.750857 -0.000010 0.000000 0.000000 0.000000 3.954820 -0.724027 -2.115637 -4.490362 20.422752 -2.985063 -24.488602 29.920900 24.697421 180.000005 71.109660 -179.999991 0.000000 0.000000 0.000000 
-26.496695 41.247978 225.823364 0.000000 0.000000 0.000000 -170.092952 13.614508 -177.254706 -98.556167 0.847082 36.662120 108.504139 -0.730599 -3.616671 1.743536 -9.784646 11.922550 0.000000 0.000000 0.000000 -170.092952 13.614508 -177.254706 -100.241653 8.592511 -15.544464 112.164520 -7.704623 2.306093 -1.735209 2.893825 -13.126305 0.000000 0.000000 0.000000 -170.092952 13.614508 -177.254706 -0.000001 0.000000 0.000000 16.749820 -3.929310 -8.905819 3.936247 -0.726284 -2.133479 0.000000 0.000000 0.000000 3.946138 -0.719988 -2.117365 0.903837 0.149311 0.259419 0.000000 0.000000 0.000000 3.946138 -0.719988 -2.117365 1.383556 -5.752321 -11.707943 -18.417709 -40.033836 -47.130754 0.000007 -56.739847 -0.000003 0.000000 0.000000 0.000000 3.946138 -0.719988 -2.117365 -4.607654 20.141296 -3.226563 -25.254291 30.109311 24.691889 -179.999991 70.810593 180.000005 0.000000 0.000000 0.000000 
-26.490677 41.249504 225.822296 0.000000 0.000000 0.000000 -170.120533 13.616564 -177.265020 -98.573796 0.811570 36.643695 108.503490 -0.735508 -3.612756 1.752353 -9.761479 11.891272 0.000000 0.000000 0.000000 -170.120533 13.616564 -177.265020 -100.259473 8.570946 -15.560474 112.163550 -7.693169 2.316725 -1.733595 2.894996 -13.118850 0.000000 0.000000 0.000000 -170.120533 13.616564 -177.265020 0.000000 0.000001 0.000000 16.729312 -3.926371 -8.881377 3.926851 -0.724808 -2.134533 0.000000 0.000000 0.000000 3.936744 -0.717941 -2.118536 0.898914 0.143457 0.285633 0.000000 0.000000 0.000000 3.936744 -0.717941 -2.118536 1.381812 -5.770175 -11.696678 -18.411473 -39.997321 -47.145142 0.000018 -56.729523 0.000023 0.000000 0.000000 0.000000 3.936744 -0.717941 -2.118536 -4.735794 19.871167 -3.474660 -25.983901 30.305539 24.700375 180.000005 70.544311 179.999991 0.000000 0.000000 0.000000 
-26.486475 41.250427 225.820816 0.000000 0.000000 0.000000 -170.128906 13.630546 -177.269473 -98.571460 0.789453 36.624775 108.503716 -0.737177 -3.609466 1.726108 -9.741674 11.894272 0.000000 0.000000 0.000000 -170.128906 13.630546 -177.269473 -100.268721 8.551830 -15.582960 112.167955 -7.667628 2.328943 -1.755050 2.895454 -13.122492 0.000000 0.000000 0.000000 -170.128906 13.630546 -177.269473 -0.000001 0.000000 0.000000 16.699872 -3.922949 -8.852094 3.916775 -0.723960 -2.135150 0.000000 0.000000 0.000000 3.926632 -0.716450 -2.119210 0.892073 0.138528 0.310169 0.000000 0.000000 0.000000 3.926632 -0.716450 -2.119210 1.380648 -5.788625 -11.682018 -18.393626 -39.973392 -47.156422 0.000047 -56.711354 0.000051 0.000000 0.000000 0.000000 3.926632 -0.716450 -2.119210 -4.867072 19.612531 -3.735025 -26.682769 30.496207 24.731864 179.999950 70.312488 -179.999950 0.000000 0.000000 0.000000 
-26.488091 41.249008 225.820526 0.000000 0.000000 0.000000 -170.214065 13.648210 -177.297490 -98.657144 0.711497 36.609452 108.504672 -0.735341 -3.606698 1.730940 -9.719244 11.843492 0.000000 0.000000 0.000000 -170.214065 13.648210 -177.297490 -100.344167 8.496849 -15.571221 112.144131 -7.660639 2.342314 -1.736377 2.894064 -13.150669 0.000000 0.000000 0.000000 -170.214065 13.648210 -177.297490 0.000000 -0.000001 0.000000 16.665219 -3.920281 -8.820580 3.906402 -0.723870 -2.135393 0.000000 0.000000 0.000000 3.916233 -0.715747 -2.119452 0.883553 0.134305 0.332838 0.000000 0.000000 0.000000 3.916233 -0.715747 -2.119452 1.380853 -5.805040 -11.663003 -18.364193 -39.967794 -47.164526 0.000016 -56.679710 0.000024 0.000000 0.000000 0.000000 3.916233 -0.715747 -2.119452 -4.993367 19.365036 -4.009893 -27.355734 30.670746 24.789886 180.000005 70.114515 -179.999991 0.000000 0.000000 0.000000 
